<svg width="30" height="30" viewBox="0 0 30 30" xmlns="http://www.w3.org/2000/svg"><title>angular-icon</title><g fill="none" fill-rule="evenodd"><circle cx="15" cy="15" r="15" fill="#E15855"/><path d="M15.248 29.998L6.656 21.95l2.11-7.028 16.392-6.366 4.792 5.213c.033.405.05.815.05 1.23 0 8.202-6.582 14.866-14.752 14.998z" opacity=".191" fill="#010101"/><path d="M15.063 5L5.033 8.597l1.585 13.39 8.456 4.736 8.5-4.8 1.584-13.39L15.063 5" fill="#FFF"/><path d="M24.158 9.307L15.04 6.14v19.45l7.64-4.307L24.16 9.307" fill="#CA403A"/><path d="M6.158 9.364L7.516 21.34l7.524 4.25V6.14L6.158 9.363" fill="#E15855"/><path d="M17.307 15.892l-2.25-4.54-1.847 4.462h1.83l2.267.078zm.243.602l-2.51 1.196h-2.645l-1.244 3.17-2.312.043L15.04 6.845l2.51 9.65z" fill="#FFF"/><path d="M15.04 6.845l.016 4.508 2.095 4.465h-2.106l-.004 1.87 2.913.002 1.36 3.214 2.214.04-6.487-14.1" fill="#FFF"/></g></svg>