<svg width="17" height="18" viewBox="0 0 17 18" xmlns="http://www.w3.org/2000/svg"><title>1456156226_close_delete_remove_icon</title><g fill="#FFF" fill-rule="evenodd"><path d="M5.67 6.557c.12.118.275.178.43.178.155 0 .31-.06.43-.178.236-.237.236-.62 0-.858L1.677.842C1.44.606 1.058.606.82.843c-.237.237-.237.62 0 .858l4.85 4.857zM9.383 9.163l6.85-7.378c.236-.255.236-.67 0-.924-.238-.254-.622-.367-.86-.11L8.1 8.475h-.18v.226L.73 16.542c-.236.254-.19.668.045.923.118.128.296.192.452.192.155 0 .32-.064.44-.192l6.853-7.378 6.85 7.38c.12.127.276.19.43.19.156 0 .312-.063.43-.19.237-.256.238-.67 0-.925l-6.847-7.38z"/></g></svg>