<svg width="20" height="16" viewBox="0 0 20 16" xmlns="http://www.w3.org/2000/svg"><title>1456169654_email_envelope_letter_mail</title><g fill="#34495E" fill-rule="evenodd"><path d="M19.286 15.714H.714C.32 15.714 0 15.394 0 15V3.57c0-.393.32-.713.714-.713.395 0 .715.32.715.714v10.716h17.14V1.43H.715C.32 1.43 0 1.11 0 .713 0 .32.32 0 .714 0h18.572c.395 0 .714.32.714.714V15c0 .395-.32.714-.714.714z"/><path d="M10 10c-.183 0-.366-.07-.505-.21L3.78 4.077c-.28-.28-.28-.73 0-1.01s.73-.28 1.01 0L10 8.276l5.21-5.21c.28-.28.73-.28 1.01 0s.28.73 0 1.01L10.504 9.79c-.14.14-.322.21-.505.21zM15.715 12.857c-.183 0-.366-.07-.505-.21l-2.144-2.143c-.28-.28-.28-.73 0-1.01s.73-.28 1.01 0l2.144 2.144c.28.28.28.73 0 1.01-.14.14-.322.21-.505.21zM4.286 12.857c-.182 0-.365-.07-.505-.21-.278-.278-.278-.73 0-1.01l2.144-2.14c.28-.28.73-.28 1.01 0 .28.278.28.73 0 1.01l-2.143 2.14c-.138.14-.32.21-.504.21z"/></g></svg>