<svg width="30" height="30" viewBox="0 0 30 30" xmlns="http://www.w3.org/2000/svg"><title>1456154893_adobe-illustrator-vector-print-news-design-book</title><g fill="none" fill-rule="evenodd"><circle fill="#4C3C1E" cx="15" cy="15" r="15"/><g fill="#FFAA2B"><path d="M11.1 17.67L10.08 21H7.86l3.75-11.73h2.73L18.18 21h-2.31l-1.05-3.33H11.1zm3.36-1.62l-.93-2.88c-.24-.72-.42-1.5-.6-2.19h-.03c-.18.69-.36 1.5-.57 2.19l-.9 2.88h3.03zM21.3 10.17c0 .63-.48 1.14-1.23 1.14-.72 0-1.17-.51-1.17-1.14 0-.66.48-1.17 1.2-1.17s1.17.51 1.2 1.17zM19.02 21v-8.46h2.16V21h-2.16z"/></g></g></svg>