<svg width="30" height="30" viewBox="0 0 30 30" xmlns="http://www.w3.org/2000/svg"><title>1456154871_code-programming-javascript-software-develop-command-language</title><g fill="none" fill-rule="evenodd"><circle fill="#F0DB4F" cx="15" cy="15" r="15"/><g fill="#323330"><path d="M10.32 9.18h2.61v7.35c0 3.3-1.59 4.47-4.11 4.47-.63 0-1.41-.09-1.92-.27l.3-2.13c.36.12.84.21 1.35.21 1.11 0 1.8-.51 1.8-2.28l-.03-7.35zM15.24 18.12c.69.36 1.8.72 2.91.72 1.2 0 1.83-.51 1.83-1.29 0-.72-.54-1.14-1.95-1.62-1.92-.69-3.21-1.77-3.21-3.48C14.82 10.5 16.5 9 19.23 9c1.32 0 2.28.27 2.97.6l-.6 2.1c-.45-.21-1.29-.54-2.4-.54-1.14 0-1.68.54-1.68 1.11 0 .75.63 1.08 2.16 1.65 2.04.75 3 1.83 3 3.48 0 1.95-1.47 3.6-4.68 3.6-1.32 0-2.64-.36-3.3-.72l.54-2.16z"/></g></g></svg>