<svg width="30" height="30" viewBox="0 0 30 30" xmlns="http://www.w3.org/2000/svg"><title>1456154925_code-programming-javascript-jquery-develop-framework-language</title><g fill="none" fill-rule="evenodd"><circle fill="#0769AD" cx="15" cy="15" r="15"/><g fill="#78CFF5"><path d="M6.84 10.77c-1.56 2.25-1.38 5.19-.18 7.59l.09.18c.03.03.03.06.06.12 0 .03.03.03.03.06.03.03.03.06.06.12s.09.12.12.21c.03.03.03.06.06.12s.09.15.12.21c.03.03.03.06.06.09l.18.27.03.03c.06.09.12.15.18.24.03.03.03.06.06.09.06.06.12.12.15.21.03.03.03.06.06.06.06.09.15.18.24.27l.24.24.06.06.18.18c.03.03.06.06.09.06.09.09.18.15.24.24l.03.03c.09.06.15.12.24.18l.09.09c.06.06.12.09.18.15l.09.09c.06.06.15.09.21.15.03.03.06.03.09.06l.03.03c.06.06.15.09.21.15.03.03.06.03.09.06.12.06.21.12.33.21.03.03.06.03.09.06.09.06.15.09.24.15.03.03.09.06.12.06l.18.09s.03 0 .03.03c.03 0 .06.03.06.03.09.03.18.09.27.12.03 0 .03.03.06.03.12.06.21.09.33.12.03 0 .06.03.09.03.09.03.21.09.3.12h.03c.12.03.24.09.33.12.03 0 .06.03.09.03.12.03.24.09.36.09 7.59 1.38 9.81-4.56 9.81-4.56-1.86 2.43-5.16 3.06-8.25 2.34l-.36-.09c-.03 0-.06-.03-.09-.03-.12-.03-.21-.06-.33-.12-.03 0-.03 0-.06-.03-.09-.03-.21-.06-.3-.12-.03 0-.06-.03-.09-.03-.12-.03-.21-.09-.33-.12-.03 0-.03-.03-.06-.03-.09-.03-.18-.09-.27-.12-.03 0-.06-.03-.09-.03-.06-.03-.15-.06-.21-.12-.06-.03-.09-.06-.15-.06-.09-.06-.18-.09-.24-.15-.03-.03-.06-.03-.09-.06-.12-.06-.21-.12-.33-.21-.03-.03-.06-.03-.09-.06-.09-.06-.15-.09-.24-.15-.03-.03-.06-.03-.06-.06-.06-.06-.15-.09-.21-.15-.03-.03-.06-.06-.09-.06-.06-.06-.12-.09-.21-.15-.03-.03-.06-.06-.09-.06-.09-.06-.15-.15-.24-.21 0 0-.03 0-.03-.03-.09-.09-.18-.15-.27-.24l-.06-.06-.18-.18-.06-.06-.24-.24c-.09-.09-.15-.18-.24-.27-.03-.03-.03-.06-.06-.06-.06-.06-.12-.15-.18-.21-.03-.03-.03-.06-.06-.09l-.18-.27c-1.74-2.37-2.34-5.61-.96-8.28"/><path d="M11.7 8.85c-1.14 1.65-1.08 3.81-.18 5.55.15.3.33.57.51.84.18.24.36.54.57.72l.27.27.06.06c.09.09.18.15.27.24.09.09.21.18.3.24.03.03.06.03.06.06.09.09.21.15.33.24.06.03.09.06.15.09.03.03.06.03.06.06.09.06.15.09.24.15 0 0 .03 0 .03.03.06.03.15.09.21.12.03 0 .06.03.06.03.06.03.09.06.15.09h.03c.09.06.21.09.3.15.03 0 .03.03.06.03.09.03.18.06.24.09.03 0 .06.03.12.03.09.03.15.06.24.09.03 0 .06.03.09.03.12.03.21.09.33.09 5.88.96 7.23-3.54 7.23-3.54-1.23 1.77-3.6 2.61-6.12 1.95-.12-.03-.21-.06-.33-.09-.03 0-.06-.03-.09-.03-.09-.03-.15-.06-.24-.09-.03 0-.06-.03-.09-.03-.09-.03-.18-.06-.24-.09-.03 0-.06-.03-.06-.03-.09-.06-.21-.09-.3-.15-.06-.03-.09-.06-.15-.09-.03-.03-.06-.03-.09-.06-.06-.03-.12-.06-.18-.12-.03 0-.03-.03-.06-.03-.09-.06-.15-.09-.24-.15-.03-.03-.06-.03-.06-.06-.06-.03-.09-.06-.15-.09-.12-.06-.21-.15-.33-.24-.03-.03-.06-.03-.06-.06-1.11-.87-1.98-2.07-2.4-3.42-.45-1.41-.33-2.97.42-4.26"/><path d="M15.81 7.44c-.66.99-.75 2.22-.27 3.3.48 1.17 1.5 2.07 2.67 2.49.06.03.09.03.15.06.03 0 .03 0 .06.03.06.03.15.06.21.06 3.24.63 4.11-1.65 4.35-2.01-.78 1.11-2.07 1.38-3.66.99-.12-.03-.27-.09-.39-.12l-.45-.18c-.27-.15-.54-.3-.81-.48-1.41-1.08-2.31-3.12-1.38-4.8"/></g></g></svg>