<svg width="30" height="30" viewBox="0 0 30 30" xmlns="http://www.w3.org/2000/svg"><title>1456155319_Laravel</title><g fill="none" fill-rule="evenodd"><circle fill="#FB5D42" cx="15" cy="15" r="15"/><path d="M16.87 22.6c-.205-.07-.338-.22-.447-.4-.157-.258-.322-.517-.47-.783-.565-1.01-1.13-2.013-1.693-3.024-.015-.023-.03-.047-.047-.078l-.274.07c-1.246.32-2.484.643-3.73.964-.15.038-.29.077-.44.077-.296 0-.523-.133-.68-.384-.04-.062-.07-.125-.094-.196-1.144-2.467-2.288-4.943-3.424-7.41-.203-.44-.407-.886-.603-1.325-.048-.11-.08-.227-.126-.344L4.82 9.72v-.14c.008-.024.024-.04.032-.063.023-.07.07-.117.14-.15.055-.022.11-.038.165-.038.298-.032.596-.056.893-.08l1.23-.093c.525-.04 1.058-.086 1.583-.126.086-.006.172-.014.25-.03h.267c.015.008.03.008.047.016.125.015.22.078.29.188l.188.282c1.55 2.6 3.11 5.194 4.66 7.795.017.024.032.055.056.087 1.998-.478 3.996-.956 6.01-1.442-.024-.03-.032-.054-.048-.07-.642-.91-1.276-1.81-1.92-2.72-.022-.03-.046-.07-.062-.108-.047-.094-.023-.173.07-.22.07-.03.142-.062.22-.078.37-.064.737-.126 1.097-.19.486-.077.972-.164 1.45-.242.125-.023.242-.04.368-.055.11-.015.21.016.305.08.094.07.172.155.25.242.494.61.988 1.222 1.48 1.833.26.32.526.642.785.963.023.025.04.056.055.08v.125c-.047.078-.133.102-.212.125-.87.235-1.74.463-2.61.698-.022.007-.053.015-.085.023.024.032.032.048.047.072.4.532.792 1.057 1.19 1.59.4.533.792 1.065 1.184 1.598.03.047.063.094.086.15.047.093.024.17-.062.226-.055.04-.11.07-.173.086-.196.08-.392.15-.587.22l-4.842 1.74c-.392.14-.783.273-1.183.406-.102.03-.21.055-.313.086-.086.016-.165.016-.25.016zM9.026 9.572c-.25.023-.5.047-.76.063l-.79.07c-.33.03-.667.055-.996.086-.218.017-.438.04-.657.056-.055.008-.07.024-.063.078.008.032.016.063.032.087.023.055.047.102.078.157 1.01 2.076 2.02 4.16 3.024 6.236.33.674.65 1.348.97 2.02.017.04.04.056.08.048.055-.006.11-.014.156-.03 1.082-.258 2.155-.517 3.236-.768.11-.023.227-.054.337-.078.078-.023.102-.063.07-.14-.015-.04-.03-.072-.055-.103-1.48-2.553-2.953-5.1-4.434-7.653-.078-.133-.078-.133-.227-.125zm6.017 8.53c.015.033.023.048.04.064.438.76.884 1.528 1.33 2.287.173.298.353.596.533.894.04.062.087.125.134.18.055.055.126.07.196.04.032-.017.063-.025.095-.032 1.31-.447 2.617-.894 3.925-1.332.596-.204 1.19-.4 1.787-.603.03-.008.07-.024.1-.04.064-.03.072-.062.033-.117-.024-.04-.055-.086-.08-.125-.234-.33-.476-.65-.71-.98-.393-.532-.777-1.065-1.17-1.598-.03-.047-.06-.094-.1-.14-.04-.048-.087-.07-.15-.048-.046.016-.086.024-.133.04l-1.903.493c-1.278.33-2.555.666-3.832.995-.032 0-.063.008-.094.023zm6.228-2.326c.016 0 .03-.007.047-.007.75-.19 1.51-.37 2.263-.558.03-.007.063-.015.094-.03.07-.032.086-.07.03-.134-.007-.008-.014-.024-.022-.03-.556-.706-1.105-1.412-1.66-2.11-.01-.014-.025-.03-.032-.038-.055-.063-.118-.078-.204-.063-.675.126-1.35.243-2.022.37-.08.014-.165.022-.243.046-.07.015-.078.047-.047.1.016.025.03.056.055.08.564.768 1.12 1.543 1.684 2.31.016.016.03.04.055.063z" fill="#FFF"/></g></svg>