<svg width="21" height="18" viewBox="0 0 21 18" xmlns="http://www.w3.org/2000/svg"><title>1456156104_Arrow-Left</title><g fill="#3498DB" fill-rule="evenodd"><path d="M19.397 9.692H1.372c-.275 0-.523-.17-.628-.427-.106-.26-.048-.556.147-.754L9.054.204c.265-.27.695-.27.96 0 .267.27.267.708 0 .98l-7 7.125h16.383c.377 0 .68.31.68.692 0 .382-.303.692-.68.692zM9.534 18c-.173 0-.348-.068-.48-.203L3.61 12.26c-.266-.272-.266-.71 0-.98s.696-.27.96 0l5.443 5.538c.266.27.266.708 0 .98-.132.134-.307.202-.48.202z"/></g></svg>