<svg width="30" height="30" viewBox="0 0 30 30" xmlns="http://www.w3.org/2000/svg"><title>Group</title><g fill="none" fill-rule="evenodd"><circle fill="#333" cx="15" cy="15" r="15"/><g fill="#8CC84B"><path d="M14.647 5.265c.516-.295 1.19-.296 1.706 0 2.597 1.466 5.195 2.93 7.792 4.395.488.275.815.818.81 1.38v8.817c.004.585-.355 1.14-.87 1.41-2.59 1.457-5.177 2.916-7.765 4.374-.527.302-1.214.28-1.725-.047-.776-.45-1.553-.896-2.33-1.345-.158-.095-.337-.17-.45-.323.1-.134.277-.15.42-.208.325-.103.622-.268.92-.43.075-.05.167-.03.24.016.663.38 1.32.77 1.987 1.147.142.082.286-.027.407-.094 2.54-1.434 5.083-2.862 7.623-4.297.094-.046.146-.146.138-.248.003-2.91.002-5.818.002-8.727.01-.117-.057-.224-.163-.272-2.58-1.45-5.16-2.904-7.738-4.355-.092-.062-.212-.063-.304 0-2.58 1.45-5.157 2.906-7.737 4.357-.104.047-.175.153-.162.27v8.727c-.01.103.046.2.14.245.688.39 1.378.777 2.066 1.165.388.208.865.332 1.292.173.378-.135.642-.52.635-.92.004-2.89 0-5.784.003-8.675-.01-.128.113-.234.238-.222.332-.002.663-.005.994 0 .138-.002.233.136.216.265-.002 2.91.003 5.82-.003 8.73 0 .776-.318 1.62-1.036 2-.884.457-1.978.36-2.852-.08-.757-.377-1.48-.822-2.223-1.226-.517-.267-.874-.825-.87-1.41V11.04c-.006-.574.334-1.126.838-1.397l7.764-4.378z"/><path d="M16.905 11.373c1.13-.073 2.337-.043 3.353.512.787.426 1.223 1.32 1.236 2.192-.022.117-.145.182-.257.174-.328 0-.655.006-.983 0-.14.004-.22-.124-.237-.246-.094-.418-.322-.83-.716-1.033-.603-.3-1.303-.285-1.962-.28-.48.026-.998.068-1.405.35-.313.214-.408.646-.296.994.105.25.394.33.63.404 1.36.355 2.802.32 4.136.788.553.19 1.093.56 1.282 1.14.248.773.14 1.698-.412 2.32-.448.51-1.1.79-1.75.94-.863.193-1.76.198-2.638.113-.826-.095-1.685-.312-2.322-.874-.545-.472-.81-1.208-.785-1.92.007-.12.126-.202.24-.193.33-.002.66-.003.99 0 .133-.01.23.105.237.23.06.397.21.814.558 1.05.67.432 1.51.403 2.28.415.635-.03 1.35-.037 1.868-.457.274-.238.356-.64.282-.983-.08-.29-.385-.427-.647-.515-1.343-.425-2.8-.27-4.13-.75-.54-.19-1.063-.55-1.27-1.105-.29-.784-.157-1.754.452-2.354.595-.598 1.452-.828 2.268-.91z"/></g></g></svg>