<svg width="20" height="20" viewBox="0 0 20 20" xmlns="http://www.w3.org/2000/svg"><title>1456169638_Phone_call_chat_communication_phone_phones_ringing_smartphone_speech_talk_telephone</title><g fill="#34495E" fill-rule="evenodd"><path d="M9.02 11.714c-.184 0-.367-.07-.506-.21l-2.98-2.978c-.134-.134-.21-.315-.21-.505 0-.188.076-.37.21-.504l1.74-1.737c.542-.544.542-1.428 0-1.97L5.286 1.823c-.526-.526-1.443-.527-1.97 0-.03.03-.066.06-.103.085-.083.056-2.076 1.482-1.75 4.426.045.393-.238.745-.63.79-.388.044-.745-.24-.788-.632C-.35 2.94 1.938 1.074 2.35.77 3.42-.256 5.245-.24 6.297.813L8.282 2.8c1.1 1.1 1.1 2.888 0 3.988L7.05 8.02l2.474 2.475c.28.28.28.73 0 1.01-.14.14-.323.21-.505.21zM5.543 15.19c-.183 0-.366-.07-.505-.21-1.755-1.754-3.07-3.467-3.905-5.09-.18-.35-.043-.782.308-.963.353-.18.782-.042.963.308.768 1.492 1.994 3.086 3.645 4.736.28.28.28.73 0 1.01-.14.14-.322.21-.505.21z"/><path d="M14.28 19.987c-2.812 0-5.928-1.692-9.274-5.04-.28-.278-.28-.73 0-1.01.28-.278.73-.278 1.01 0 3.242 3.244 6.27 4.83 8.774 4.598 2.207-.21 3.277-1.746 3.288-1.763.025-.037.053-.072.086-.103.262-.264.407-.614.407-.986 0-.37-.144-.72-.406-.984l-1.986-1.986c-.263-.263-.613-.408-.986-.408-.372 0-.72.145-.983.408l-1.74 1.737c-.28.28-.73.28-1.01 0l-2.98-2.976c-.278-.28-.278-.73 0-1.01.28-.28.732-.28 1.01 0l2.474 2.472 1.234-1.232c.532-.533 1.24-.827 1.994-.827s1.463.294 1.996.826l1.986 1.987c.532.532.826 1.24.826 1.994 0 .733-.278 1.424-.784 1.95-.26.352-1.662 2.075-4.292 2.323-.212.02-.428.03-.644.03z"/></g></svg>