<svg width="30" height="30" viewBox="0 0 30 30" xmlns="http://www.w3.org/2000/svg"><title>1456206664_adobe-photoshop-design-ps-psd-graphics-cc</title><g fill="none" fill-rule="evenodd"><circle fill="#30267E" cx="15" cy="15" r="15"/><g fill="#7EBCF9"><path d="M8.1 9.24C8.88 9.09 9.93 9 11.37 9c1.56 0 2.73.33 3.48.96.69.57 1.14 1.5 1.14 2.61 0 1.11-.36 2.04-1.02 2.67-.84.84-2.19 1.26-3.72 1.26-.39 0-.78-.03-1.05-.06v4.41H8.1V9.24zm2.13 5.46c.27.06.6.09 1.05.09 1.59 0 2.58-.78 2.58-2.16 0-1.32-.9-2.01-2.4-2.01-.6 0-1.02.06-1.23.09v3.99zM16.95 18.87c.48.3 1.41.6 2.19.6.93 0 1.35-.39 1.35-.93 0-.57-.36-.87-1.38-1.23-1.65-.57-2.34-1.47-2.34-2.46 0-1.5 1.23-2.67 3.21-2.67.93 0 1.77.24 2.25.51l-.42 1.53c-.36-.21-1.05-.48-1.8-.48-.78 0-1.17.36-1.17.9s.39.81 1.47 1.17c1.53.57 2.25 1.35 2.25 2.61 0 1.53-1.2 2.64-3.45 2.64-1.02 0-1.95-.24-2.58-.6l.42-1.59z"/></g></g></svg>