<svg width="30" height="30" viewBox="0 0 30 30" xmlns="http://www.w3.org/2000/svg"><title>1456154868_code-programming-php-software-develop-command-language</title><g fill="none" fill-rule="evenodd"><circle fill="#36447F" cx="15" cy="15" r="15"/><g fill="#C9D5F7"><path d="M8.31 12.81c.69 0 1.14.12 1.38.39.24.24.27.69.15 1.29-.12.63-.36 1.11-.72 1.38-.36.27-.9.42-1.62.42H6.39l.66-3.48h1.26zM3.9 19.8h1.8l.42-2.22h1.56c.69 0 1.23-.06 1.68-.21.45-.15.84-.39 1.2-.72.3-.27.54-.6.75-.93.18-.33.33-.72.39-1.11.18-.99.06-1.74-.42-2.31-.48-.54-1.23-.81-2.28-.81H5.52L3.9 19.8zM13.53 9.3h1.8l-.42 2.22h1.59c.99 0 1.71.18 2.07.54.39.36.51.93.33 1.71l-.75 3.87h-1.83l.72-3.66c.09-.42.06-.69-.09-.84-.15-.15-.45-.24-.9-.24h-1.44l-.93 4.74h-1.8l1.65-8.34zM22.92 12.81c.69 0 1.14.12 1.38.39.24.24.27.69.15 1.29-.12.63-.36 1.11-.72 1.38-.36.27-.9.42-1.62.42H21l.66-3.48h1.26zm-4.41 6.99h1.8l.42-2.22h1.56c.69 0 1.23-.06 1.68-.21.45-.15.84-.39 1.2-.72.3-.27.54-.6.75-.93.18-.33.33-.72.39-1.11.18-.99.06-1.74-.42-2.31-.48-.54-1.23-.81-2.28-.81h-3.48l-1.62 8.31z"/></g></g></svg>