<svg width="30" height="30" viewBox="0 0 30 30" xmlns="http://www.w3.org/2000/svg"><title>sketch-icon</title><g fill="none" fill-rule="evenodd"><path d="M25.583 4.39c-.346-.346-.702-.67-1.073-.984-.64-.536-1.313-1.016-2.018-1.43-.576-.34-1.17-.638-1.792-.892C19.698.67 18.64.376 17.53.198c-.21-.033-.422-.063-.64-.087-.192-.022-.387-.04-.584-.055-.1-.008-.203-.016-.304-.022l-.06-.003C15.63.01 15.31 0 14.985 0c-.297 0-.59.008-.886.023l-.233.013-.203.016c-.195.016-.39.035-.584.057-1.337.152-2.607.48-3.81.973-.613.25-1.21.55-1.79.89-.7.413-1.372.89-2.018 1.434-.354.297-.702.614-1.04.95-.01.012-.02.02-.032.032l-.157.16c-.393.403-.754.812-1.09 1.233-.576.726-1.075 1.484-1.49 2.273-.266.502-.5 1.018-.697 1.537-.462 1.21-.754 2.477-.88 3.81-.05.517-.074 1.044-.074 1.582 0 .766.05 1.514.15 2.227.185 1.354.542 2.62 1.07 3.81.134.31.276.602.43.893.548 1.035 1.23 2.01 2.032 2.916.232.263.464.51.706.75.35.35.712.68 1.072.986 1.025.857 2.106 1.55 3.243 2.074.187.09.376.17.566.25 1.21.494 2.477.818 3.81.972.197.022.39.04.586.057.07.003.137.01.203.012.082.007.156.01.23.015h.014c.27.014.527.022.777.022h.097c.327 0 .65-.01.955-.027.022 0 .04-.003.062-.003l.16-.01.144-.01c.204-.017.404-.037.584-.058.402-.048.773-.106 1.135-.176.253-.05.502-.105.743-.164.664-.166 1.308-.378 1.932-.632.195-.08.39-.165.568-.25 1.156-.537 2.234-1.23 3.242-2.072.31-.262.614-.536.914-.827l.16-.156.03-.032c.234-.234.46-.474.675-.718.81-.916 1.487-1.886 2.03-2.915.156-.29.3-.59.433-.896.085-.187.164-.38.238-.576.398-1.025.674-2.102.833-3.233.072-.532.12-1.08.138-1.64.008-.192.01-.39.01-.587v-.096c-.002-.5-.026-.995-.072-1.487-.073-.755-.2-1.5-.38-2.227-.036-.138-.076-.286-.117-.432-.08-.277-.17-.558-.267-.836-.037-.102-.073-.203-.116-.314-.176-.464-.384-.93-.62-1.39l-.077-.148c-.095-.178-.203-.372-.314-.562-.343-.584-.733-1.153-1.177-1.71-.38-.473-.796-.94-1.248-1.394V4.39z" fill="#34495E"/><path d="M28.32 21.917c.155-.29.3-.59.432-.895.085-.187.164-.38.238-.576.397-1.025.673-2.102.832-3.233.05-.358.086-.72.11-1.088l-4.227-4.228-10.902 13.038 4.456 4.455c.49-.142.97-.31 1.44-.5.194-.08.39-.165.567-.25 1.156-.537 2.234-1.23 3.242-2.072.31-.262.613-.536.913-.827l.16-.156.03-.032c.234-.234.46-.474.675-.718.81-.916 1.486-1.886 2.03-2.915l.002-.003z" fill-opacity=".229" fill="#000"/><path d="M22.943 8.627L19.96 7.23h-9.947L7.03 8.627l2.956.89h10l2.957-.89z" fill="#F8EEAC"/><path d="M22.943 8.627l-2.957.89 1.69 4.22-.027.05 4.054-1.89-2.762-3.27z" fill="#D98A49"/><path d="M21.65 13.786l.026-.048H8.34l-.018.048 6.608 11.298.056.07.055-.07 6.61-11.298z" fill="#E38739"/><path d="M25.705 11.897l-4.056 1.89-6.61 11.297 10.664-13.187z" fill="#B84C35"/><path d="M21.676 13.738l-1.69-4.222h-10L8.34 13.738h13.336zm-13.307.125l-.076-.125h.125l-.05.125z" fill="#E9CB65"/><path d="M8.322 13.786l-.027-.048h.046l1.647-4.222-2.957-.89-2.763 3.27 4.055 1.89z" fill="#FAE88C"/><path d="M8.322 13.786l-4.055-1.89 10.663 13.19-6.608-11.3z" fill="#C33F26"/><path d="M7.246 4.903v-.01l-.002.005v.005l-.517 3.18-3.18.52 3.18.518.517 3.18v.007l.002.005v-.01l.517-3.18 3.18-.518-3.18-.518-.517-3.18v-.003z" fill="#FFF"/></g></svg>