<svg width="30" height="30" viewBox="0 0 30 30" xmlns="http://www.w3.org/2000/svg"><title>1456154898_wordpress-cms-word-blog-page-web-design</title><g fill="none" fill-rule="evenodd"><circle fill="#21759B" cx="15" cy="15" r="15"/><path d="M6.75 15c0 3.27 1.89 6.09 4.65 7.41L7.47 11.64c-.45 1.02-.72 2.16-.72 3.36zm13.8-.42c0-1.02-.36-1.71-.69-2.28-.42-.69-.81-1.26-.81-1.92 0-.75.57-1.47 1.38-1.47h.12C19.08 7.56 17.13 6.75 15 6.75c-2.88 0-5.4 1.47-6.87 3.72h.54c.87 0 2.19-.12 2.19-.12.45-.03.51.63.06.69 0 0-.45.06-.93.09l3 8.91 1.8-5.4-1.29-3.51c-.48-.03-.9-.06-.9-.06-.45-.03-.39-.72.06-.69 0 0 1.35.12 2.16.12.87 0 2.19-.12 2.19-.12.45-.03.51.63.06.69 0 0-.45.06-.93.09l2.97 8.85.81-2.73c.42-1.11.63-1.98.63-2.7zm-5.4 1.14l-2.46 7.17c.75.21 1.53.33 2.34.33.96 0 1.89-.18 2.73-.48-.03-.03-.03-.06-.06-.12l-2.55-6.9zm7.08-4.68c.03.27.06.54.06.84 0 .84-.15 1.77-.63 2.94l-2.52 7.26c2.46-1.38 4.11-4.05 4.11-7.08 0-1.44-.39-2.79-1.02-3.96zM5.4 15c0 5.28 4.32 9.6 9.6 9.6 5.28 0 9.6-4.32 9.6-9.6 0-5.28-4.32-9.6-9.6-9.6-5.28 0-9.6 4.32-9.6 9.6zm.45 0c0-5.04 4.11-9.15 9.15-9.15s9.15 4.11 9.15 9.15-4.11 9.15-9.15 9.15S5.85 20.04 5.85 15z" fill="#FFF"/></g></svg>